<svg width="24" height="24" viewBox="0 0 24 24" fill="none" xmlns="http://www.w3.org/2000/svg">
<path d="M5.95 6.42105C7.017 6.42105 8.007 6.97368 8.821 7.94632C9.426 7.29421 10.141 6.81895 10.9 6.58684V4.21053C10.9 3.62426 11.1318 3.062 11.5444 2.64745C11.9569 2.23289 12.5165 2 13.1 2H15.3V4.21053H13.1V6.58684C13.859 6.81895 14.574 7.29421 15.179 7.94632C15.993 6.97368 16.983 6.42105 18.05 6.42105C20.8 6.42105 23 10.1347 23 14.7105C23 19.2863 20.8 23 18.05 23C16.983 23 15.993 22.4474 15.179 21.4747C14.288 22.4474 13.188 23 12 23C10.812 23 9.712 22.4474 8.821 21.4747C8.007 22.4474 7.017 23 5.95 23C3.2 23 1 19.2863 1 14.7105C1 10.1347 3.2 6.42105 5.95 6.42105ZM8.7 10.8421L7.325 13.3289H10.075L8.7 10.8421ZM15.3 10.8421L13.925 13.3289H16.675L15.3 10.8421ZM7.6 18.5789H9.8L10.9 17.4737L12 18.5789H14.2L15.3 17.4737L16.4 18.5789L18.05 15.2632L14.112 15.9484L13.1 17.4737L12 16.3684H9.8L8.7 17.4737L7.6 16.3684L5.4 15.2632L7.6 18.5789Z" fill="url(#paint0_linear_3943_3028)"/>
<defs>
<linearGradient id="paint0_linear_3943_3028" x1="12" y1="2" x2="12" y2="23" gradientUnits="userSpaceOnUse">
<stop stop-color="#FACC00"/>
<stop offset="1" stop-color="#FD7B00"/>
</linearGradient>
</defs>
</svg>
